<svg xmlns="http://www.w3.org/2000/svg" width="60" height="41"><path fill="#FF4D00" fill-rule="evenodd" d="M45.517 0v25.172c0 8.57-6.947 15.518-15.517 15.518s-15.517-6.948-15.517-15.518v-9.655C14.483 6.947 21.43 0 30 0h15.517zm-6.896 6.897H30a8.62 8.62 0 105.09 15.578l.083-.06v2.757a5.173 5.173 0 01-10.345.086l-.001-.134a1.724 1.724 0 00-3.445-.048l-.002.048v.048a8.62 8.62 0 0017.24.143v-11.57a1.724 1.724 0 00-3.445-.048l-.002.048v1.772a5.173 5.173 0 11-5.259-5.171l.086-.001h6.945a1.725 1.725 0 001.675-1.676V6.897z"/></svg>
